#!OML:ASF F:\VICON\USERDATA\INSTALL\rory3\rory3.ASF
:FULLY-SPECIFIED
:DEGREES
2875
root 9.55917 17.6836 -10.6156 1079.63 78.4898 -358.224
lowerback 11.262 -3.02973 -2.78351
upperback 1.21752 -4.10492 3.67423
thorax -4.5575 -1.92444 6.04024
lowerneck 3.15778 -18.3899 -14.2921
upperneck 37.2817 -29.0305 12.9608
head 17.8029 -12.6942 3.45007
rclavicle 9.93923e-015 7.15625e-015
rhumerus -35.7979 -12.8224 -73.8072
rradius 40.5298
rwrist 2.0815
rhand -13.6893 8.69573
rfingers 7.12502
rthumb 12.4287 -20.9147
lclavicle 9.93923e-015 7.15625e-015
lhumerus -31.5017 9.7746 71.1472
lradius 38.9125
lwrist -1.60911
lhand -19.591 27.1279
lfingers 7.12502
lthumb 6.73466 57.0008
rfemur -7.74382 12.6234 25.1258
rtibia 33.1593
rfoot -18.4488 6.42348
rtoes 16.3223
lfemur -19.8187 -11.2169 -11.6176
ltibia 20.6604
lfoot -9.00628 -5.6026
ltoes -11.5773
2876
root 9.47102 17.6958 -10.5955 1078.49 79.0589 -359.309
lowerback 11.3569 -3.09137 -2.5836
upperback 1.27249 -4.15831 3.69782
thorax -4.55841 -1.95354 5.96334
lowerneck 3.17281 -18.4632 -14.1187
upperneck 37.3983 -29.1266 12.896
head 17.8361 -12.708 3.38519
rclavicle 3.19049e-014 2.38542e-015
rhumerus -35.5903 -12.8866 -73.8442
rradius 40.7529
rwrist 2.02465
rhand -13.606 8.93557
rfingers 7.12502
rthumb 12.509 -20.67
lclavicle 3.19049e-014 2.38542e-015
lhumerus -31.6478 9.91801 71.1369
lradius 38.703
lwrist -1.72733
lhand -19.5411 26.9033
lfingers 7.12502
lthumb 6.78281 56.7746
rfemur -7.84724 12.5719 25.5508
rtibia 33.0408
rfoot -18.1946 5.63622
rtoes 14.6208
lfemur -19.9282 -10.8633 -11.4992
ltibia 21.6264
lfoot -9.23003 -2.54726
ltoes -12.1072
2877
root 9.38521 17.7061 -10.5772 1077.83 79.7624 -359.871
lowerback 11.4064 -3.23404 -2.54439
upperback 1.36707 -4.33772 3.7447
thorax -4.46415 -2.04574 6.014
lowerneck 3.20123 -18.5166 -14.0656
upperneck 37.4516 -29.1749 12.8175
head 17.8391 -12.7255 3.33816
rclavicle 4.29375e-014 1.82882e-014
rhumerus -35.2202 -12.8766 -73.8795
rradius 40.8808
rwrist 2.05999
rhand -14.0827 8.93069
rfingers 7.12502
rthumb 12.0493 -20.7024
lclavicle 4.29375e-014 1.82882e-014
lhumerus -31.7995 10.127 71.2475
lradius 38.531
lwrist -1.65318
lhand -19.7018 27.1008
lfingers 7.12502
lthumb 6.6277 56.9771
rfemur -7.88373 12.2604 25.7789
rtibia 32.8041
rfoot -17.8164 5.13593
rtoes 14.3736
lfemur -20.1201 -10.3098 -11.6246
ltibia 22.8499
lfoot -9.27026 -0.118207
ltoes -12.7332
2878
root 9.29955 17.7228 -10.5579 1078.71 80.541 -358.871
lowerback 11.4513 -3.39623 -2.76573
upperback 1.45704 -4.5819 3.71676
thorax -4.34979 -2.1681 6.14107
lowerneck 3.32987 -18.5807 -14.0989
upperneck 37.3503 -29.2698 12.8768
head 17.7953 -12.7774 3.35534
rclavicle -9.20373e-014 3.26007e-014
rhumerus -34.9123 -12.7894 -73.9424
rradius 41.107
rwrist 2.21216
rhand -14.3605 8.68273
rfingers 7.12502
rthumb 11.7815 -20.9659
lclavicle -9.20373e-014 3.26007e-014
lhumerus -31.971 10.3345 71.3717
lradius 38.3594
lwrist -1.54867
lhand -19.8484 27.1324
lfingers 7.12502
lthumb 6.48618 57.0131
rfemur -7.88215 11.9918 25.7157
rtibia 32.5011
rfoot -17.3874 4.53274
rtoes 14.6269
lfemur -20.3248 -9.79733 -12.1037
ltibia 24.2632
lfoot -9.25715 1.81486
ltoes -12.1011
2879
root 9.2135 17.7385 -10.5366 1078.91 81.3372 -358.518
lowerback 11.5655 -3.49608 -2.79155
upperback 1.51726 -4.71899 3.67639
thorax -4.33403 -2.23645 6.13711
lowerneck 3.55038 -18.7116 -14.0366
upperneck 37.2389 -29.4411 12.8726
head 17.7029 -12.8601 3.32727
rclavicle -2.39536e-014 6.04305e-014
rhumerus -34.8648 -12.864 -73.9049
rradius 41.4459
rwrist 2.16711
rhand -14.1085 8.61009
rfingers 7.12502
rthumb 12.0245 -21.0245
lclavicle -2.39536e-014 6.04305e-014
lhumerus -32.0696 10.3751 71.5242
lradius 38.0667
lwrist -1.7807
lhand -19.8284 27.1308
lfingers 7.12502
lthumb 6.50549 57.0109
rfemur -7.79134 12.0024 25.8439
rtibia 32.1802
rfoot -16.887 3.71227
rtoes 15.3977
lfemur -20.4628 -9.15635 -12.4834
ltibia 25.7832
lfoot -9.40585 3.07279
ltoes -7.81263
2880
root 9.12992 17.7527 -10.5211 1078.71 82.2152 -358.542
lowerback 11.6987 -3.62838 -2.77141
upperback 1.56321 -4.88823 3.70896
thorax -4.33715 -2.31959 6.19172
lowerneck 3.77414 -18.8038 -14.0541
upperneck 37.166 -29.5439 12.8476
head 17.6295 -12.923 3.31746
rclavicle -1.0794e-013 3.97569e-014
rhumerus -34.8631 -12.9042 -73.7587
rradius 41.8081
rwrist 1.95465
rhand -13.9041 8.8689
rfingers 7.12502
rthumb 12.2216 -20.754
lclavicle -1.0794e-013 3.97569e-014
lhumerus -32.1977 10.3566 71.8225
lradius 37.7499
lwrist -2.01077
lhand -19.963 27.0941
lfingers 7.12502
lthumb 6.37555 56.9782
rfemur -7.67457 11.82 25.9821
rtibia 31.8325
rfoot -16.4177 3.10198
rtoes 16.8486
lfemur -20.6106 -8.56745 -12.8392
ltibia 27.4156
lfoot -9.58836 4.09773
ltoes -4.49401
2881
root 9.04861 17.7672 -10.5058 1077.3 83.1698 -359.776
lowerback 11.7762 -3.82077 -2.63229
upperback 1.64671 -5.11711 3.78925
thorax -4.26849 -2.43605 6.23088
lowerneck 3.94676 -18.8764 -14.1219
upperneck 37.1395 -29.6396 12.8669
head 17.6183 -12.9783 3.32844
rclavicle 2.57426e-014 -2.38542e-014
rhumerus -34.8606 -13.0772 -73.6363
rradius 42.1847
rwrist 1.97147
rhand -14.032 9.19603
rfingers 7.12502
rthumb 12.0983 -20.4342
lclavicle 2.57426e-014 -2.38542e-014
lhumerus -32.3061 10.3292 72.1176
lradius 37.442
lwrist -2.14469
lhand -20.0067 26.9106
lfingers 7.12502
lthumb 6.33336 56.796
rfemur -7.55712 11.2847 26.2439
rtibia 31.4692
rfoot -16.0263 2.6253
rtoes 17.4742
lfemur -20.7716 -7.94773 -13.0532
ltibia 29.1506
lfoot -9.5392 4.97094
ltoes -4.60154
2882
root 8.96991 17.7798 -10.483 1074.7 83.9569 -362.227
lowerback 11.7683 -3.95308 -2.53523
upperback 1.75505 -5.26676 3.94088
thorax -4.12572 -2.51488 6.34966
lowerneck 4.00645 -18.9876 -14.1654
upperneck 37.2006 -29.7602 12.7568
head 17.6473 -13.0396 3.26404
rclavicle 2.50469e-014 1.90833e-014
rhumerus -34.7995 -13.1665 -73.4981
rradius 42.4808
rwrist 1.92185
rhand -14.5134 9.27061
rfingers 7.12502
rthumb 11.634 -20.3864
lclavicle 2.50469e-014 1.90833e-014
lhumerus -32.3268 10.4634 72.4692
lradius 37.0106
lwrist -2.45315
lhand -20.2341 26.8794
lfingers 7.12502
lthumb 6.11377 56.7711
rfemur -7.47605 10.7997 26.6296
rtibia 31.1469
rfoot -15.6043 2.16117
rtoes 16.6366
lfemur -20.8791 -7.06311 -13.1402
ltibia 30.8978
lfoot -9.46694 5.4487
ltoes -4.77629
2883
root 8.89325 17.7909 -10.4605 1073.62 84.7068 -363.191
lowerback 11.7511 -4.053 -2.67806
upperback 1.7954 -5.40633 4.09426
thorax -4.02747 -2.58446 6.6076
lowerneck 4.1817 -19.0766 -14.28
upperneck 37.1379 -29.8123 12.6078
head 17.5646 -13.1018 3.21857
rclavicle -3.40916e-014 1.59028e-014
rhumerus -34.7795 -13.0026 -73.2773
rradius 42.8036
rwrist 1.57887
rhand -14.946 9.01022
rfingers 7.12502
rthumb 11.2168 -20.6699
lclavicle -3.40916e-014 1.59028e-014
lhumerus -32.3642 10.6899 72.9403
lradius 36.4934
lwrist -2.90321
lhand -20.398 27.114
lfingers 7.12502
lthumb 5.95557 57.0103
rfemur -7.46103 10.533 26.789
rtibia 30.8617
rfoot -15.1775 1.66639
rtoes 16.0772
lfemur -20.9886 -6.04735 -13.4659
ltibia 32.6422
lfoot -9.39355 5.44908
ltoes -5.87685
2884
root 8.81908 17.8029 -10.445 1073.46 85.5725 -363.276
lowerback 11.6964 -4.2007 -2.7365
upperback 1.78028 -5.60569 4.14804
thorax -3.976 -2.68383 6.71905
lowerneck 4.32677 -19.1742 -14.3834
upperneck 37.1572 -29.87 12.3933
head 17.5179 -13.164 3.14124
rclavicle 3.44891e-014 -2.14687e-014
rhumerus -34.9462 -12.8517 -73.1317
rradius 43.2205
rwrist 1.12941
rhand -14.8731 8.79802
rfingers 7.12502
rthumb 11.2872 -20.8783
lclavicle 3.44891e-014 -2.14687e-014
lhumerus -32.4451 10.7761 73.3603
lradius 35.9726
lwrist -3.43675
lhand -20.2752 27.0414
lfingers 7.12502
lthumb 6.07417 56.9343
rfemur -7.50185 10.1262 26.7602
rtibia 30.5889
rfoot -14.8192 1.38315
rtoes 16.6641
lfemur -21.1144 -5.35883 -13.8837
ltibia 34.3922
lfoot -9.4346 5.17796
ltoes -6.48232
2885
root 8.74936 17.8177 -10.4283 1072.04 86.3805 -364.569
lowerback 11.6001 -4.34304 -2.71386
upperback 1.81112 -5.78903 4.16849
thorax -3.86637 -2.77902 6.73931
lowerneck 4.4661 -19.2613 -14.3829
upperneck 37.3211 -29.9185 12.1427
head 17.5236 -13.203 3.04311
rclavicle 1.19271e-014 -1.43125e-014
rhumerus -35.1542 -12.8642 -73.0876
rradius 43.6172
rwrist 0.643275
rhand -14.6281 8.86124
rfingers 7.12502
rthumb 11.5234 -20.802
lclavicle 1.19271e-014 -1.43125e-014
lhumerus -32.5083 10.8498 73.6524
lradius 35.4641
lwrist -4.07215
lhand -19.9157 26.6182
lfingers 7.12502
lthumb 6.42123 56.5008
rfemur -7.47224 9.7072 26.8241
rtibia 30.3268
rfoot -14.4396 1.21855
rtoes 17.6239
lfemur -21.1274 -4.78992 -14.1481
ltibia 36.1493
lfoot -9.72717 4.6252
ltoes -4.22561
2886
root 8.68251 17.831 -10.4076 1067.87 87.0952 -368.581
lowerback 11.4564 -4.4401 -2.65862
upperback 1.91477 -5.90437 4.23263
thorax -3.66158 -2.84433 6.76879
lowerneck 4.63729 -19.3527 -14.3773
upperneck 37.3728 -29.9998 12.0156
head 17.4974 -13.2519 2.99085
rclavicle 7.76254e-014 -3.49861e-014
rhumerus -35.3234 -13.0523 -72.9905
rradius 43.9452
rwrist 0.360926
rhand -14.7282 9.16317
rfingers 7.12502
rthumb 11.4269 -20.5054
lclavicle 7.76254e-014 -3.49861e-014
lhumerus -32.4487 10.8127 73.9553
lradius 34.9538
lwrist -4.63094
lhand -19.4472 26.0911
lfingers 7.12502
lthumb 6.87351 55.9595
rfemur -7.36137 9.4878 27.0576
rtibia 30.0797
rfoot -14.0087 0.932158
rtoes 19.0779
lfemur -21.0564 -4.03773 -14.3075
ltibia 37.8763
lfoot -9.78817 4.1238
ltoes -5.14034
2887
root 8.61414 17.8412 -10.3873 1063.59 87.7383 -372.729
lowerback 11.3306 -4.486 -2.69103
upperback 1.96558 -5.9651 4.28208
thorax -3.52201 -2.87929 6.83038
lowerneck 4.80492 -19.4488 -14.4673
upperneck 37.3983 -30.1261 11.9994
head 17.5201 -13.32 2.98208
rclavicle -1.53064e-014 3.18055e-015
rhumerus -35.5261 -13.0884 -72.8643
rradius 44.2446
rwrist -0.00589194
rhand -14.8587 9.12115
rfingers 7.12502
rthumb 11.301 -20.5544
lclavicle -1.53064e-014 3.18055e-015
lhumerus -32.3622 10.6249 74.3982
lradius 34.4382
lwrist -4.95019
lhand -19.5758 26.3469
lfingers 7.12502
lthumb 6.74931 56.2193
rfemur -7.32766 9.33511 27.1958
rtibia 29.8808
rfoot -13.6554 0.619489
rtoes 20.4478
lfemur -20.9671 -3.15612 -14.5486
ltibia 39.54
lfoot -9.7623 3.57776
ltoes -7.82156
